<?xml version="1.0" encoding="iso-8859-1"?>
<!-- Generator: Adobe Illustrator 19.0.0, SVG Export Plug-In . SVG Version: 6.00 Build 0)  -->
<svg version="1.1" id="Capa_1" xmlns="http://www.w3.org/2000/svg" xmlns:xlink="http://www.w3.org/1999/xlink" x="0px" y="0px"
	 viewBox="0 0 384 384" style="enable-background:new 0 0 384 384;" xml:space="preserve">
<g>
	<g>
		<path d="M336,240H48c-8.832,0-16,7.168-16,16c0,8.832,7.168,16,16,16h288c8.832,0,16-7.168,16-16C352,247.168,344.832,240,336,240
			z"/>
	</g>
</g>
<g>
	<g>
		<path d="M304,296H80c-8.832,0-16,7.168-16,16c0,8.832,7.168,16,16,16h224c8.832,0,16-7.168,16-16C320,303.168,312.832,296,304,296
			z"/>
	</g>
</g>
<g>
	<g>
		<path d="M272,352H112c-8.832,0-16,7.168-16,16c0,8.832,7.168,16,16,16h160c8.832,0,16-7.168,16-16
			C288,359.168,280.832,352,272,352z"/>
	</g>
</g>
<g>
	<g>
		<path d="M368,184h-29.096C347.296,170.976,352,155.784,352,139.84c0-46.36-39.48-84.08-88-84.08c-2.904,0-5.784,0.136-8.632,0.4
			C243.144,23.24,210.032,0,172.4,0c-48.432,0-87.84,37.608-88,83.888C54.016,93.12,32,120.664,32,152.24
			c0,11.2,2.904,22.008,7.952,31.76H16c-8.832,0-16,7.168-16,16c0,8.832,7.168,16,16,16h60.64c0.216,0,0.424-0.056,0.64-0.064
			c0.4-0.016,0.8-0.04,1.2-0.088c0.504,0.048,1,0.152,1.52,0.152h136c8.832,0,16-7.168,16-16c0-8.832-7.168-16-16-16H81.312
			C70.432,176.576,64,164.984,64,152.24c0-20.336,17.096-37.688,38.92-39.496c4.576-0.376,8.776-2.704,11.512-6.392
			c2.736-3.688,3.776-8.376,2.816-12.872c-0.576-2.752-0.848-5.712-0.848-9.32c0-28.76,25.128-52.16,56-52.16
			c27.784,0,51.616,19.32,55.464,44.928c0.68,4.56,3.296,8.6,7.168,11.088c3.88,2.504,8.648,3.2,13.072,1.912
			c5.016-1.44,10.368-2.168,15.896-2.168c30.872,0,56,23.36,56,52.08c0,19.176-11.248,36.752-29.352,45.872
			c-0.28,0.136-0.504,0.336-0.768,0.488c-0.504,0.296-1,0.592-1.472,0.936c-0.408,0.296-0.784,0.624-1.16,0.96
			c-0.392,0.352-0.768,0.704-1.128,1.088c-0.352,0.384-0.672,0.784-0.984,1.2c-0.312,0.408-0.608,0.824-0.88,1.264
			c-0.264,0.432-0.496,0.872-0.72,1.328c-0.232,0.472-0.448,0.952-0.64,1.448c-0.176,0.48-0.32,0.96-0.448,1.456
			c-0.136,0.496-0.256,0.992-0.344,1.504c-0.096,0.56-0.136,1.128-0.168,1.696c-0.016,0.304-0.096,0.6-0.096,0.92
			c0,0.168,0.048,0.328,0.048,0.496c0.016,0.576,0.096,1.144,0.176,1.712c0.072,0.504,0.136,1,0.248,1.488
			c0.112,0.472,0.28,0.936,0.44,1.408c0.192,0.56,0.384,1.112,0.632,1.64c0.072,0.144,0.096,0.304,0.176,0.448
			c0.088,0.176,0.232,0.296,0.328,0.472c0.552,1.008,1.2,1.936,1.944,2.8c0.176,0.2,0.32,0.424,0.504,0.616
			c0.888,0.928,1.896,1.728,2.984,2.424c0.272,0.168,0.552,0.296,0.832,0.456c0.888,0.496,1.824,0.896,2.808,1.216
			c0.336,0.104,0.656,0.224,0.992,0.312c1.232,0.312,2.504,0.52,3.84,0.528c0.024,0,0.04,0.008,0.064,0.008c0.008,0,0.024,0,0.032,0
			H368c8.832,0,16-7.168,16-16C384,191.192,376.832,184,368,184z"/>
	</g>
</g>
<g>
</g>
<g>
</g>
<g>
</g>
<g>
</g>
<g>
</g>
<g>
</g>
<g>
</g>
<g>
</g>
<g>
</g>
<g>
</g>
<g>
</g>
<g>
</g>
<g>
</g>
<g>
</g>
<g>
</g>
</svg>
