<?xml version="1.0" encoding="iso-8859-1"?>
<!-- Generator: Adobe Illustrator 19.0.0, SVG Export Plug-In . SVG Version: 6.00 Build 0)  -->
<svg version="1.1" id="Capa_1" xmlns="http://www.w3.org/2000/svg" xmlns:xlink="http://www.w3.org/1999/xlink" x="0px" y="0px"
	 viewBox="0 0 384 384" style="enable-background:new 0 0 384 384;" xml:space="preserve">
<g>
	<g>
		<path d="M56,208H16c-8.832,0-16,7.168-16,16c0,8.832,7.168,16,16,16h40c8.832,0,16-7.168,16-16C72,215.168,64.832,208,56,208z"/>
	</g>
</g>
<g>
	<g>
		<path d="M384,152c0-48.52-39.48-88-88-88c-48.52,0-88,39.48-88,88c0,8.832,7.168,16,16,16c8.832,0,16-7.168,16-16
			c0-30.88,25.12-56,56-56s56,25.12,56,56s-25.12,56-56,56h-48h-72h-40c-8.832,0-16,7.168-16,16c0,8.832,7.168,16,16,16h40h64
			c30.88,0,56,25.12,56,56s-25.12,56-56,56s-56-25.12-56-56c0-8.832-7.168-16-16-16c-8.832,0-16,7.168-16,16c0,48.52,39.48,88,88,88
			s88-39.48,88-88c0-21.448-7.736-41.112-20.536-56.4c0.952-0.208,1.88-0.488,2.76-0.856C351.992,231.904,384,195.672,384,152z"/>
	</g>
</g>
<g>
	<g>
		<path d="M88,0C39.48,0,0,39.48,0,88c0,8.832,7.168,16,16,16c8.832,0,16-7.168,16-16c0-30.88,25.12-56,56-56s56,25.12,56,56
			s-25.12,56-56,56H16c-8.832,0-16,7.168-16,16c0,8.832,7.168,16,16,16h72c48.52,0,88-39.48,88-88S136.52,0,88,0z"/>
	</g>
</g>
<g>
</g>
<g>
</g>
<g>
</g>
<g>
</g>
<g>
</g>
<g>
</g>
<g>
</g>
<g>
</g>
<g>
</g>
<g>
</g>
<g>
</g>
<g>
</g>
<g>
</g>
<g>
</g>
<g>
</g>
</svg>
